<svg id="eD3SGFuWUPf1"
        xmlns="http://www.w3.org/2000/svg"
        xmlns:xlink="http://www.w3.org/1999/xlink"
        viewBox="0 0 471.64422 535.27925"
        shape-rendering="geometricPrecision"
        text-rendering="geometricPrecision">
    <path d="M647.5666,378.41453c-20.9336,0-32.28809-2.55811-36.25342-8.01856-3.499-4.81787-1.15332-11.1748,1.563-18.53515c1.95215-5.29053,4.16455-11.28662,4.16455-17.22119c0-28.86426,14.63574-43.5,43.5-43.5c14.36133,0,29.78125,7.6289,41.24853,20.40771c10.42481,11.61719,15.61817,25.521,14.24854,38.146v0c-1.12354,10.354-5.94287,17.16308-15.167,21.42968l-.53955.24952-.15332-.57422c-.796492-2.971714-2.144616-5.76718-3.97412-8.24072-.178017,3.882788-1.156835,7.686846-2.875,11.17334l-.09815.19873-.21289.061c-10.43994,2.97363-22.83008,3.7793-32.458,4.14844q-7.02905.27396-12.99317.27542Z" transform="translate(-364.178-182.36)" fill="#393e46"/>
    <path d="M653.27212,418.63117c-1.627912-4.785005-5.464375-8.490678-10.302946-9.951704s-10.084795-.497909-14.088904,2.586484l-68.8566,41.16735-21.54632-52.573c3.73406-5.47796,3.514463-12.737722-.543868-17.979974s-11.031551-7.273643-17.270309-5.031068-10.322858,8.248613-10.114932,14.874925s4.660544,12.364479,11.027629,14.211497c1.328,15.16031,8.70834,82.92118,34.38327,80.458c21.581-2.07043,75.17541-37.7632,91.82187-50.13882c5.463984-4.05831,7.682934-11.180017,5.49111-17.62369Z" transform="translate(-364.178-182.36)" fill="#ffb6b6"/>
    <path d="M705.16071,717.63963h-59.93l-10.05-49.69-3.26,49.69h-55.67c.021421-39.0221,2.054117-78.017162,6.09-116.83l.69-2.35l1.09-3.76.69-2.36l11.52-39.56.91-3.14h69.37c3.991923,3.749785,7.673934,7.816384,11.01,12.16c1.13,1.44,2.31,3,3.52,4.68.84,1.19,1.71,2.44,2.58,3.75c7.72959,11.507313,13.507211,24.211323,17.1,37.6v.01q.915,3.435,1.62,7.03v.01c.42,2.13.79,4.29,1.08,6.5.22,1.61.41,3.24.55,4.89.833657,9.141151.541449,18.35009-.87006,27.42Z" transform="translate(-364.178-182.36)" fill="#393e46"/>
    <ellipse rx="7.55666" ry="5.2568" transform="matrix(.932567-.360996 0.360996 0.932567 70.338948 69.73268)" fill="#00adb5"/><ellipse rx="7.55666" ry="5.25681" transform="matrix(.932567-.360996 0.360996 0.932567 15.189639 137.598461)" fill="#00fff5"/><ellipse rx="5.25681" ry="7.55666" transform="matrix(.648181-.761486 0.761486 0.648181 56.0405 283.90463)" fill="#00adb5"/><ellipse rx="5.25681" ry="7.55666" transform="matrix(.648181-.761486 0.761486 0.648181 94.827919 267.735015)" fill="#00fff5"/><ellipse rx="4.77581" ry="3.3223" transform="matrix(.746053-.665887 0.665887 0.746053 145.234392 255.988015)" fill="#00fff5"/><ellipse rx="5.2568" ry="7.55666" transform="matrix(.897351-.441318 0.441318 0.897351 262.90102 73.106332)" fill="#00adb5"/><ellipse rx="5.25681" ry="7.55666" transform="matrix(.897351-.441318 0.441318 0.897351 210.326041 24.271394)" fill="#00fff5"/><ellipse rx="5.25681" ry="7.55666" transform="matrix(.897351-.441318 0.441318 0.897351 64.092592 99.678731)" fill="#00fff5"/><ellipse rx="4.77581" ry="3.3223" transform="matrix(.94919-.314705 0.314705 0.94919 262.039522 50.677645)" fill="#00adb5"/>
    <path d="M637.44226,386.45014l33.016-1.70078l15.335,24.23122c0,0,28.85327,4.82389,26.85327,38.82389s-35.10581,63.83516-35.10581,63.83516l1.41517,17.7057-2.4578,7.02278.31518,3.94331l3.3529,4.17612.3452,4.31886-2.97065,6.83323l4.03976,6.5428-84.93395-8.22878-3.10581-11.314l4.53071-6.07552-2.53071-7.92448l3.80459-7.62205l1.98386-24.21106c0,0-21.70416-32.60744,3.21155-57.16689l10-17l11.18914-13.65128Z" transform="translate(-364.178-182.36)" fill="#00adb5"/>
    <circle r="34.9842" transform="translate(289.678 162.264)" fill="#ffb6b6"/>
    <path d="M649.17158,342.5034q-4.522,0-9.03906-.25489l-.53809-.03027.0708-.53418c.443614-3.339293.19395-6.734189-.7334-9.97266-1.574919,3.687453-3.918015,6.996697-6.873,9.707l-.167.15283-.22461-.02442c-8.178558-.894608-16.282713-2.372644-24.25052-4.42281l-.30518-.07812-.061-.3086c-.595062-2.922285-.903169-5.895721-.91993-8.87793c0-9.31591,3.37744-17.15674,9.51075-22.07812c6.67529-5.35694,16.24462-7.0044,26.9541-4.6416h34.24511c7.838897.008812,14.191382,6.361293,14.2002,14.20019v21.686l-.37354.09765c-13.545031,3.559757-27.490646,5.367813-41.49563,5.37993Z" transform="translate(-364.178-182.36)" fill="#393e46"/>
    <path d="M410.45832,303.58938c-3.191952,1.167399-4.836559,4.698296-3.6763,7.89285l36.94327,101.36884c1.167286,3.191993,4.698122,4.836729,7.89272,3.67659l143.38306-52.25511c3.191952-1.167399,4.836559-4.698296,3.6763-7.89285L561.7341,255.01086c-1.167286-3.191993-4.698122-4.836729-7.89272-3.67659Z" transform="translate(-364.178-182.36)" fill="#393e46"/>
    <path d="M541.63689,378.13237l-87.76521,31.98551c-3.438278,1.248682-7.238478-.521506-8.4948-3.957l-33.50723-91.94065c-1.248798-3.438248.521281-7.238517,3.95675-8.49494L551.10723,256.423c3.438332-1.248706,7.2386.521472,8.495,3.957l16.19036,44.42481c10.778331,29.678999-4.501194,62.482023-34.1557,73.32756Z" transform="translate(-364.178-182.36)" fill="#222831"/>
    <path d="M478.48515,311.71291l-20.856,7.60085c-1.099963.400873-2.316632-.165852-2.717505-1.265815s.165852-2.316632,1.265815-2.717505l20.856-7.60085c1.099963-.400876,2.316634.165847,2.71751,1.26581s-.165847,2.316634-1.26581,2.71751Z" transform="translate(-364.178-182.36)" fill="#00adb5"/>
    <path d="M528.20617,302.82027l-67.60829,24.63945c-.711817.260405-1.508506.120941-2.089535-.365782s-.857973-1.246635-.726363-1.993075.651746-1.365812,1.364198-1.624473l67.6083-24.63944c1.099963-.400873,2.316632.165852,2.717505,1.265815s-.165852,2.316632-1.265815,2.717505Z" transform="translate(-364.178-182.36)" fill="#00adb5"/>
    <path d="M531.61389,312.17073L464.0056,336.81017c-.711552.259321-1.507399.119336-2.087753-.367225s-.857047-1.245778-.72585-1.99166.650351-1.365114,1.361903-1.624435l67.60829-24.63945c1.099504-.399183,2.314548.167689,2.715077,1.266704s-.164854,2.314751-1.263377,2.716626Z" transform="translate(-364.178-182.36)" fill="#00adb5"/>
    <path d="M535.02161,321.52118l-67.60829,24.63945c-.711817.260405-1.508506.120941-2.089535-.365782s-.857973-1.246635-.726363-1.993075.651746-1.365812,1.364198-1.624473l67.60829-24.63944c1.099963-.400876,2.316634.165847,2.71751,1.26581s-.165847,2.316634-1.26581,2.71751Z" transform="translate(-364.178-182.36)" fill="#00adb5"/>
    <path d="M538.42933,330.87164L470.821,355.51108c-.711552.259321-1.507399.119336-2.087753-.367225s-.857047-1.245778-.72585-1.99166.650351-1.365114,1.361903-1.624435l67.60829-24.63944c1.099963-.400876,2.316634.165847,2.71751,1.26581s-.165847,2.316634-1.26581,2.71751Z" transform="translate(-364.178-182.36)" fill="#00adb5"/>
    <path d="M752.95063,356.83987l-37.01617,88.58c-3.286075,7.798611-12.221085,11.518556-20.07063,8.35608v0c-3.944315-1.589094-7.062267-4.729287-8.623287-8.684797s-1.427918-8.378712.368117-12.233203l41.27157-90.83415l22.75148-56.25137c-4.027532-4.016896-5.110624-10.124816-2.709827-15.281621s7.772121-8.259813,13.438704-7.763526s10.416738,4.485749,11.884581,9.981374-.660498,11.322285-5.324968,14.577923Z" transform="translate(-364.178-182.36)" fill="#ffb6b6"/>
    <ellipse rx="5.25681" ry="7.55666" transform="matrix(.648181-.761486 0.761486 0.648181 52.633135 207.836044)" fill="#00adb5"/><ellipse rx="5.25681" ry="7.55666" transform="matrix(.648181-.761486 0.761486 0.648181 208.943727 220.740104)" fill="#00fff5"/><ellipse rx="7.55666" ry="5.2568" transform="matrix(.932567-.360996 0.360996 0.932567 132.726607 72.257063)" fill="#00adb5"/><ellipse rx="5.25681" ry="7.55666" transform="matrix(.897351-.441318 0.441318 0.897351 39.239451 241.228356)" fill="#00fff5"/>
</svg>