<svg id="ea3sINXM7OF1"
        xmlns="http://www.w3.org/2000/svg"
        xmlns:xlink="http://www.w3.org/1999/xlink"
        viewBox="0 0 800 540"
        shape-rendering="geometricPrecision"
        text-rendering="geometricPrecision">
    <g transform="translate(-1144.290648-65.991936)">
    <path d="M385.83271,577.46554c-.67194.46224-1.34388.92448-2.0162,1.40385-9.00157,6.261251-17.479593,13.243451-25.35041,20.8777-.61791.58057-1.23537,1.17825-1.83531,1.77536-18.766505,18.59476-33.917649,40.512066-44.68323,64.63776-4.275061,9.604111-7.813244,19.519551-10.58392,29.66048-3.82564,14.00525-6.85927,29.49489-14.85286,41.07746-.820405,1.217771-1.715452,2.383557-2.68,3.49066L208.915,742.34206c-.17248-.081-.34535-.145-.51867-.226l-2.98759.21475c.10637-.533.22814-1.0835.33451-1.61649.06041-.30943.13752-.6193.19793-.92874.04557-.20642.092-.413.12128-.60186.01491-.06876.03065-.13755.046-.18932.02931-.18888.0766-.36121.10636-.533q1.00829-4.61864,2.085-9.23916c-.00044-.01711-.00044-.01711.0158-.03465c5.5293-23.45682,13.06545-46.65811,23.88353-67.978.32569-.64133.6501-1.29975,1.01-1.942c4.929633-9.582909,10.634239-18.746885,17.05685-27.40041c3.532056-4.727102,7.301149-9.272369,11.29281-13.61835c10.33544-11.209531,22.369735-20.723616,35.6617-28.19346c26.4996-14.88715,57.46538-21.13354,86.4069-13.21642.74025.20305,1.46459.40643,2.2053.62659Z" transform="matrix(2.389638 0.047481-.041049 2.065934 1000.468084-939.487083)" fill="#fa968a"/>
    <path d="M385.83271,577.46554c-.67194.46224-1.34388.92448-2.0162,1.40385-9.00157,6.261251-17.479593,13.243451-25.35041,20.8777-.61791.58057-1.23537,1.17825-1.83531,1.77536-18.766505,18.59476-33.917649,40.512066-44.68323,64.63776-4.275061,9.604111-7.813244,19.519551-10.58392,29.66048-3.82564,14.00525-6.85927,29.49489-14.85286,41.07746-.820405,1.217771-1.715452,2.383557-2.68,3.49066L208.915,742.34206c-.17248-.081-.34535-.145-.51867-.226l-2.98759.21475c.10637-.533.22814-1.0835.33451-1.61649.06041-.30943.13752-.6193.19793-.92874.04557-.20642.092-.413.12128-.60186.01491-.06876.03065-.13755.046-.18932.02931-.18888.0766-.36121.10636-.533q1.00829-4.61864,2.085-9.23916c-.00044-.01711-.00044-.01711.0158-.03465c5.5293-23.45682,13.06545-46.65811,23.88353-67.978.32569-.64133.6501-1.29975,1.01-1.942c4.929633-9.582909,10.634239-18.746885,17.05685-27.40041c3.532056-4.727102,7.301149-9.272369,11.29281-13.61835c10.33544-11.209531,22.369735-20.723616,35.6617-28.19346c26.4996-14.88715,57.46538-21.13354,86.4069-13.21642.74025.20305,1.46459.40643,2.2053.62659Z" transform="matrix(2.389638 0.047481-.041049 2.065934 1000.468084-939.487083)" fill="#00adb5"/>
    <path d="M385.68908,578.42077c-36.724,8.28252-71.03976,28.35094-95.82017,56.7659-5.35746,6.14324-10.25754,12.84133-13.46061,20.37989-3.065718,7.372064-4.101378,15.430591-2.99937,23.33828.87939,7.39379,2.63513,14.855,1.70188,22.33381-.98369,7.88305-5.47849,14.42874-11.89708,18.96561-7.85333,5.551-17.23287,7.94913-26.48677,9.97554-10.27469,2.24993-20.98253,4.42413-29.43272,11.099-1.02386.80875-2.2189-.82722-1.19659-1.63475c14.70188-11.61312,34.857-9.78206,51.05387-18.1321c7.55775-3.89629,13.98709-10.0938,15.65989-18.70826c1.4628-7.533-.34116-15.22859-1.29626-22.70727-1.00288-7.85274-.65662-15.43583,2.0825-22.92908c2.802-7.66517,7.4505-14.56894,12.62741-20.82222c11.845042-14.092525,25.832226-26.234993,41.44916-35.98259c17.761804-11.223709,37.312691-19.326318,57.80678-23.95726c1.26856-.28611,1.46841,1.73126.20813,2.0155Z" transform="matrix(2.389638 0.047481-.041049 2.065934 1000.468084-942.716657)" fill="#fff"/>
    <path d="M297.43643,625.52556c-8.698819-10.06741-8.823402-24.954416-.29429-35.166.839-.99754,2.42856.25939,1.58843,1.25826-7.962805,9.49787-7.818243,23.38117.34061,32.71117.857.98232-.78267,2.17329-1.63475,1.19659Z" transform="matrix(2.389638 0.047481-.041049 2.065934 1000.468084-942.716657)" fill="#fff"/>
    <path d="M272.46929,675.21461c13.124682,1.075275,26.172455-2.835803,36.54158-10.95336c1.02669-.80509,2.222.83063,1.19659,1.63475-10.806125,8.427182-24.392614,12.469659-38.048,11.32067-1.30148-.11041-.98459-2.11187.30982-2.00206Z" transform="matrix(2.389638 0.047481-.041049 2.065934 1000.468084-942.716657)" fill="#fff"/>
    <path d="M176.48137,606.86124c4.48183-45.74693,31.57027-91.41208,74.6711-107.3851-15.926638,47.381374-14.580497,98.869098,3.80025,145.35351c7.15367,17.90139,16.97423,37.0672,11.16353,55.44857-3.61532,11.43741-12.95662,20.35944-23.50968,26.061-10.55372,5.7016-22.35566,8.59565-34.01041,11.43411l-2.257,1.96793c-19.70198-41.52945-34.33963-87.13309-29.85779-132.88002Z" transform="matrix(2.234368 0.848661-.7337 1.931697 1536.741565-1003.7355)" fill="#00adb5"/>
    <path d="M345.85055,591.79286c2.512022,4.520924,7.128975,7.475711,12.28639,7.86312c1.30223.09386.98393,2.09531-.30983,2.00206-5.693633-.454337-10.791869-3.701234-13.61131-8.66859-.311741-.455823-.215859-1.075399.21908-1.41567.452139-.327479,1.083667-.229748,1.41567.21908Z" transform="matrix(2.389638 0.047481-.041049 2.065934 1000.468084-942.716657)" fill="#fff"/>
    <path d="M219.48341,645.77769c11.126711-7.043422,19.189888-18.021858,22.58173-30.7462.335-1.261,2.27427-.67461,1.93964.58483-3.554344,13.234663-11.968543,24.642356-23.56337,31.94644-1.10563.69542-2.05763-1.09342-.958-1.78507Z" transform="matrix(2.233452 0.851069-.735782 1.930905 1540.8369-1007.966)" fill="#fff"/>
    <path d="M209.502,591.07182c-13.006805-2.800968-22.069289-14.612411-21.40734-27.90091.032132-.54515.490288-.966896,1.036228-.95388s.983477.456118.989592,1.00218c-.639518,12.377697,7.83463,23.375731,19.96635,25.913c1.27568.26837.68355,2.20648-.58483,1.93965Z" transform="matrix(2.233452 0.851069-.735782 1.930905 1540.8369-1007.966)" fill="#fff"/>
    <path d="M251.6065,500.32709c-24.3354,28.72351-39.652,65.40748-42.33,103.01475-.579,8.1306-.4587,16.42884,1.52256,24.37642c1.990689,7.731953,6.015559,14.789774,11.65642,20.44014c5.15372,5.37408,11.04774,10.27436,14.80536,16.80764c3.96072,6.88643,4.31282,14.819,1.91945,22.30586-2.92836,9.1604-8.97355,16.7223-15.14224,23.91176-6.84915,7.98252-14.08974,16.16536-16.818,26.58246-.33057,1.26217-2.26971.67544-1.93964-.58483c4.74673-18.124,21.94191-28.79677,29.84688-45.21542c3.6886-7.66125,5.09074-16.48052,1.23988-24.36584-3.36741-6.89536-9.44106-11.95377-14.70634-17.35-5.52863-5.66617-9.81771-11.92932-12.14213-19.56139-2.37774-7.80719-2.8227-16.11821-2.45413-24.22795.972929-18.383626,4.830308-36.499957,11.43083-53.68534c7.424348-19.655321,18.156293-37.895772,31.73151-53.93217.84063-.99221,2.21479.49823,1.37966,1.48395Z" transform="matrix(2.233452 0.851069-.735782 1.930905 1540.8369-1007.966)" fill="#fff"/>
    <path d="M227.84859,534.9895c4.727614,2.097305,10.192983,1.676809,14.54413-1.119c1.09627-.70909,2.04714,1.08059.958,1.78507-4.819599,3.065213-10.84513,3.54224-16.087,1.27357-.523348-.176259-.819821-.728686-.67741-1.26224.163846-.533693.726927-.835883,1.26224-.67741Z" transform="matrix(2.233452 0.851069-.735782 1.930905 1540.8369-1007.966)" fill="#fff"/>
    </g>
    <g transform="matrix(-1 0 0 1 1479.772998-65.991483)">
    <path d="M385.83271,577.46554c-.67194.46224-1.34388.92448-2.0162,1.40385-9.00157,6.261251-17.479593,13.243451-25.35041,20.8777-.61791.58057-1.23537,1.17825-1.83531,1.77536-18.766505,18.59476-33.917649,40.512066-44.68323,64.63776-4.275061,9.604111-7.813244,19.519551-10.58392,29.66048-3.82564,14.00525-6.85927,29.49489-14.85286,41.07746-.820405,1.217771-1.715452,2.383557-2.68,3.49066L208.915,742.34206c-.17248-.081-.34535-.145-.51867-.226l-2.98759.21475c.10637-.533.22814-1.0835.33451-1.61649.06041-.30943.13752-.6193.19793-.92874.04557-.20642.092-.413.12128-.60186.01491-.06876.03065-.13755.046-.18932.02931-.18888.0766-.36121.10636-.533q1.00829-4.61864,2.085-9.23916c-.00044-.01711-.00044-.01711.0158-.03465c5.5293-23.45682,13.06545-46.65811,23.88353-67.978.32569-.64133.6501-1.29975,1.01-1.942c4.929633-9.582909,10.634239-18.746885,17.05685-27.40041c3.532056-4.727102,7.301149-9.272369,11.29281-13.61835c10.33544-11.209531,22.369735-20.723616,35.6617-28.19346c26.4996-14.88715,57.46538-21.13354,86.4069-13.21642.74025.20305,1.46459.40643,2.2053.62659Z" transform="matrix(2.389638 0.047481-.041049 2.065934 516.04338-939.487083)" fill="#00adb5"/>
    <path d="M385.83271,577.46554c-.67194.46224-1.34388.92448-2.0162,1.40385-9.00157,6.261251-17.479593,13.243451-25.35041,20.8777-.61791.58057-1.23537,1.17825-1.83531,1.77536-18.766505,18.59476-33.917649,40.512066-44.68323,64.63776-4.275061,9.604111-7.813244,19.519551-10.58392,29.66048-3.82564,14.00525-6.85927,29.49489-14.85286,41.07746-.820405,1.217771-1.715452,2.383557-2.68,3.49066L208.915,742.34206c-.17248-.081-.34535-.145-.51867-.226l-2.98759.21475c.10637-.533.22814-1.0835.33451-1.61649.06041-.30943.13752-.6193.19793-.92874.04557-.20642.092-.413.12128-.60186.01491-.06876.03065-.13755.046-.18932.02931-.18888.0766-.36121.10636-.533q1.00829-4.61864,2.085-9.23916c-.00044-.01711-.00044-.01711.0158-.03465c5.5293-23.45682,13.06545-46.65811,23.88353-67.978.32569-.64133.6501-1.29975,1.01-1.942c4.929633-9.582909,10.634239-18.746885,17.05685-27.40041c3.532056-4.727102,7.301149-9.272369,11.29281-13.61835c10.33544-11.209531,22.369735-20.723616,35.6617-28.19346c26.4996-14.88715,57.46538-21.13354,86.4069-13.21642.74025.20305,1.46459.40643,2.2053.62659Z" transform="matrix(2.389638 0.047481-.041049 2.065934 516.04338-940.444021)" fill="#00adb5"/>
    <path d="M385.68908,578.42077c-36.724,8.28252-71.03976,28.35094-95.82017,56.7659-5.35746,6.14324-10.25754,12.84133-13.46061,20.37989-3.065718,7.372064-4.101378,15.430591-2.99937,23.33828.87939,7.39379,2.63513,14.855,1.70188,22.33381-.98369,7.88305-5.47849,14.42874-11.89708,18.96561-7.85333,5.551-17.23287,7.94913-26.48677,9.97554-10.27469,2.24993-20.98253,4.42413-29.43272,11.099-1.02386.80875-2.2189-.82722-1.19659-1.63475c14.70188-11.61312,34.857-9.78206,51.05387-18.1321c7.55775-3.89629,13.98709-10.0938,15.65989-18.70826c1.4628-7.533-.34116-15.22859-1.29626-22.70727-1.00288-7.85274-.65662-15.43583,2.0825-22.92908c2.802-7.66517,7.4505-14.56894,12.62741-20.82222c11.845042-14.092525,25.832226-26.234993,41.44916-35.98259c17.761804-11.223709,37.312691-19.326318,57.80678-23.95726c1.26856-.28611,1.46841,1.73126.20813,2.0155Z" transform="matrix(2.389638 0.047481-.041049 2.065934 516.04338-942.716657)" fill="#fff"/>
    <path d="M297.43643,625.52556c-8.698819-10.06741-8.823402-24.954416-.29429-35.166.839-.99754,2.42856.25939,1.58843,1.25826-7.962805,9.49787-7.818243,23.38117.34061,32.71117.857.98232-.78267,2.17329-1.63475,1.19659Z" transform="matrix(2.389638 0.047481-.041049 2.065934 516.04338-942.716657)" fill="#fff"/>
    <path d="M272.46929,675.21461c13.124682,1.075275,26.172455-2.835803,36.54158-10.95336c1.02669-.80509,2.222.83063,1.19659,1.63475-10.806125,8.427182-24.392614,12.469659-38.048,11.32067-1.30148-.11041-.98459-2.11187.30982-2.00206Z" transform="matrix(2.389638 0.047481-.041049 2.065934 516.04338-942.716657)" fill="#fff"/>
    <path d="M176.48137,606.86124c4.48183-45.74693,31.57027-91.41208,74.6711-107.3851-15.926638,47.381374-14.580497,98.869098,3.80025,145.35351c7.15367,17.90139,16.97423,37.0672,11.16353,55.44857-3.61532,11.43741-12.95662,20.35944-23.50968,26.061-10.55372,5.7016-22.35566,8.59565-34.01041,11.43411l-2.257,1.96793c-19.70198-41.52945-34.33963-87.13309-29.85779-132.88002Z" transform="matrix(2.234368 0.848661-.7337 1.931697 1052.316861-1003.7355)" fill="#00adb5"/>
    <path d="M345.85055,591.79286c2.512022,4.520924,7.128975,7.475711,12.28639,7.86312c1.30223.09386.98393,2.09531-.30983,2.00206-5.693633-.454337-10.791869-3.701234-13.61131-8.66859-.311741-.455823-.215859-1.075399.21908-1.41567.452139-.327479,1.083667-.229748,1.41567.21908Z" transform="matrix(2.389638 0.047481-.041049 2.065934 516.04338-942.716657)" fill="#fff"/>
    <path d="M219.48341,645.77769c11.126711-7.043422,19.189888-18.021858,22.58173-30.7462.335-1.261,2.27427-.67461,1.93964.58483-3.554344,13.234663-11.968543,24.642356-23.56337,31.94644-1.10563.69542-2.05763-1.09342-.958-1.78507Z" transform="matrix(2.233452 0.851069-.735782 1.930905 1056.412196-1007.966)" fill="#fff"/>
    <path d="M209.502,591.07182c-13.006805-2.800968-22.069289-14.612411-21.40734-27.90091.032132-.54515.490288-.966896,1.036228-.95388s.983477.456118.989592,1.00218c-.639518,12.377697,7.83463,23.375731,19.96635,25.913c1.27568.26837.68355,2.20648-.58483,1.93965Z" transform="matrix(2.233452 0.851069-.735782 1.930905 1056.412196-1007.966)" fill="#fff"/>
    <path d="M251.6065,500.32709c-24.3354,28.72351-39.652,65.40748-42.33,103.01475-.579,8.1306-.4587,16.42884,1.52256,24.37642c1.990689,7.731953,6.015559,14.789774,11.65642,20.44014c5.15372,5.37408,11.04774,10.27436,14.80536,16.80764c3.96072,6.88643,4.31282,14.819,1.91945,22.30586-2.92836,9.1604-8.97355,16.7223-15.14224,23.91176-6.84915,7.98252-14.08974,16.16536-16.818,26.58246-.33057,1.26217-2.26971.67544-1.93964-.58483c4.74673-18.124,21.94191-28.79677,29.84688-45.21542c3.6886-7.66125,5.09074-16.48052,1.23988-24.36584-3.36741-6.89536-9.44106-11.95377-14.70634-17.35-5.52863-5.66617-9.81771-11.92932-12.14213-19.56139-2.37774-7.80719-2.8227-16.11821-2.45413-24.22795.972929-18.383626,4.830308-36.499957,11.43083-53.68534c7.424348-19.655321,18.156293-37.895772,31.73151-53.93217.84063-.99221,2.21479.49823,1.37966,1.48395Z" transform="matrix(2.233452 0.851069-.735782 1.930905 1056.412196-1007.966)" fill="#fff"/>
    <path d="M227.84859,534.9895c4.727614,2.097305,10.192983,1.676809,14.54413-1.119c1.09627-.70909,2.04714,1.08059.958,1.78507-4.819599,3.065213-10.84513,3.54224-16.087,1.27357-.523348-.176259-.819821-.728686-.67741-1.26224.163846-.533693.726927-.835883,1.26224-.67741Z" transform="matrix(2.233452 0.851069-.735782 1.930905 1056.412196-1007.966)" fill="#fff"/>
    </g>
</svg>